<svg width="35" height="36" viewBox="0 0 35 36" fill="none" xmlns="http://www.w3.org/2000/svg">
<path d="M17.5001 0.5C7.8751 0.5 0.000106812 8.38906 0.000106812 18.1054C0.000106812 26.8906 6.4051 34.1822 14.7701 35.5V23.2008H10.3251V18.1054H14.7701V14.2224C14.7701 9.81225 17.3776 7.38755 21.3851 7.38755C23.2926 7.38755 25.2876 7.72139 25.2876 7.72139V12.0612H23.0826C20.9126 12.0612 20.2301 13.4142 20.2301 14.8022V18.1054H25.0951L24.3076 23.2008H20.2301V35.5C24.3539 34.8461 28.1089 32.7336 30.8174 29.5438C33.526 26.354 35.0094 22.2971 35.0001 18.1054C35.0001 8.38906 27.1251 0.5 17.5001 0.5Z" fill="#757575"/>
</svg>
