<svg width="35" height="36" viewBox="0 0 35 36" fill="none" xmlns="http://www.w3.org/2000/svg">
<g clip-path="url(#clip0_1_151)">
<path d="M14.1505 18C14.1505 19.85 15.6501 21.3496 17.5001 21.3496C19.3501 21.3496 20.8497 19.85 20.8497 18C20.8497 16.15 19.3501 14.6504 17.5001 14.6504C15.6501 14.6504 14.1505 16.15 14.1505 18Z" fill="#757575"/>
<path d="M9.66655 12.0735C9.82757 11.6372 10.0844 11.2422 10.4182 10.9181C10.7424 10.5843 11.1371 10.3274 11.5737 10.1664C11.9277 10.0289 12.4597 9.86518 13.4394 9.82059C14.4992 9.77225 14.817 9.76184 17.5001 9.76184C20.1835 9.76184 20.5012 9.77199 21.5608 9.82032C22.5405 9.86518 23.0727 10.0289 23.4265 10.1664C23.8631 10.3274 24.2581 10.5843 24.582 10.9181C24.9158 11.2422 25.1726 11.6369 25.3339 12.0735C25.4715 12.4276 25.6351 12.9598 25.6797 13.9395C25.7281 14.9991 25.7385 15.3168 25.7385 18.0002C25.7385 20.6833 25.7281 21.0011 25.6797 22.0609C25.6351 23.0406 25.4715 23.5726 25.3339 23.9267C25.1726 24.3632 24.916 24.7579 24.5822 25.0821C24.2581 25.4159 23.8634 25.6728 23.4268 25.8338C23.0727 25.9716 22.5405 26.1352 21.5608 26.1798C20.5012 26.2282 20.1837 26.2383 17.5004 26.2383C14.8167 26.2383 14.499 26.2282 13.4397 26.1798C12.4599 26.1352 11.9277 25.9716 11.5737 25.8338C10.6973 25.4957 10.0046 24.803 9.66655 23.9267C9.52903 23.5726 9.36534 23.0406 9.32048 22.0609C9.27215 21.0011 9.262 20.6833 9.262 18.0002C9.262 15.3168 9.27215 14.9991 9.32048 13.9395C9.36507 12.9598 9.52876 12.4276 9.66655 12.0735ZM17.5001 23.16C20.3501 23.16 22.6604 20.8499 22.6604 17.9999C22.6604 15.1499 20.3501 12.8399 17.5001 12.8399C14.6504 12.8399 12.34 15.1499 12.34 17.9999C12.34 20.8499 14.6504 23.16 17.5001 23.16ZM12.136 13.8418C12.802 13.8418 13.3419 13.3018 13.3419 12.6359C13.3419 11.9699 12.802 11.43 12.136 11.43C11.4701 11.43 10.9301 11.9699 10.9301 12.6359C10.9304 13.3018 11.4701 13.8418 12.136 13.8418Z" fill="#757575"/>
<path d="M17.5001 0.5C27.1636 0.5 35.0001 8.33649 35.0001 18C35.0001 27.6635 27.1636 35.5 17.5001 35.5C7.8366 35.5 0.000106812 27.6635 0.000106812 18C0.000106812 8.33649 7.8366 0.5 17.5001 0.5ZM7.51189 22.143C7.56049 23.2127 7.73059 23.943 7.97893 24.5823C8.50097 25.9321 9.56802 26.9991 10.9178 27.5212C11.5568 27.7695 12.2874 27.9393 13.3569 27.9882C14.4285 28.0371 14.7708 28.0488 17.4998 28.0488C20.2291 28.0488 20.5712 28.0371 21.6431 27.9882C22.7125 27.9393 23.4431 27.7695 24.0821 27.5212C24.7529 27.2688 25.3601 26.8734 25.8621 26.362C26.3732 25.8603 26.7687 25.2528 27.021 24.5823C27.2694 23.9433 27.4395 23.2127 27.4881 22.1432C27.5375 21.0714 27.5489 20.729 27.5489 18C27.5489 15.271 27.5375 14.9286 27.4883 13.857C27.4397 12.7873 27.2699 12.057 27.0216 11.4177C26.7692 10.7472 26.3735 10.1397 25.8621 9.63799C25.3604 9.12663 24.7529 8.73116 24.0824 8.47882C23.4431 8.23048 22.7128 8.06065 21.6431 8.01179C20.5715 7.96292 20.2291 7.95117 17.5001 7.95117C14.7711 7.95117 14.4287 7.96292 13.3572 8.01205C12.2874 8.06065 11.5571 8.23048 10.9178 8.47855C10.2473 8.7309 9.63985 9.12663 9.13783 9.63799C8.62674 10.14 8.231 10.7472 7.97893 11.4177C7.73032 12.057 7.56049 12.7873 7.51163 13.857C7.46276 14.9286 7.45128 15.271 7.45128 18C7.45128 20.729 7.46276 21.0714 7.51189 22.143Z" fill="#757575"/>
</g>
<defs>
<clipPath id="clip0_1_151">
<rect width="35" height="35" fill="white" transform="matrix(-1 0 0 1 35.0001 0.5)"/>
</clipPath>
</defs>
</svg>
