<svg width="188" height="42" viewBox="0 0 188 42" fill="none" xmlns="http://www.w3.org/2000/svg">
<path d="M3.2257 34.5033L0.514826 30.6663H2.47309L4.31444 33.4111L6.1704 30.6663H8.11405L5.39586 34.5033L8.25288 38.5105H6.30923L4.31444 35.5743L2.32695 38.5105H0.383301L3.2257 34.5033Z" fill="white"/>
<path d="M8.44286 30.6663H10.3134L11.9575 35.1132C12.2059 35.7468 12.3716 36.3426 12.4544 36.9005H12.5128C12.5567 36.6405 12.637 36.3261 12.754 35.9573C12.8709 35.5837 13.4895 33.8201 14.6099 30.6663H16.4659L13.0097 39.5531C12.3813 41.1844 11.334 42 9.86772 42C9.48775 42 9.11754 41.9598 8.75706 41.8795V40.5603C9.01524 40.617 9.30995 40.6454 9.6412 40.6454C10.4693 40.6454 11.0514 40.1796 11.3876 39.2482L11.6871 38.5105L8.44286 30.6663Z" fill="white"/>
<path d="M25.4461 41.2837H23.8459V38.5105H18.3072V41.2837H16.7216V37.2197H17.3793C17.9541 36.4206 18.4095 35.456 18.7457 34.326C19.0866 33.1912 19.2888 31.9713 19.3521 30.6663H24.2624V37.2197H25.4461V41.2837ZM22.5745 37.2197V31.9429H20.8354C20.7429 32.9169 20.548 33.8768 20.2509 34.8225C19.9586 35.7681 19.6006 36.5672 19.1768 37.2197H22.5745Z" fill="white"/>
<path d="M34.1122 34.5742C34.1122 35.8556 33.7736 36.8556 33.0965 37.5743C32.4194 38.293 31.4768 38.6524 30.2687 38.6524C29.5137 38.6524 28.8463 38.4869 28.2666 38.1559C27.6869 37.8249 27.2412 37.3497 26.9294 36.7303C26.6177 36.1109 26.4618 35.3922 26.4618 34.5742C26.4618 33.3023 26.7979 32.3094 27.4701 31.5954C28.1424 30.8814 29.0899 30.5244 30.3125 30.5244C31.4817 30.5244 32.4072 30.8909 33.0892 31.6237C33.7712 32.3519 34.1122 33.3354 34.1122 34.5742ZM28.2301 34.5742C28.2301 36.3852 28.9194 37.2906 30.2979 37.2906C31.6619 37.2906 32.3439 36.3852 32.3439 34.5742C32.3439 32.7822 31.657 31.8862 30.2833 31.8862C29.5624 31.8862 29.0387 32.1179 28.7123 32.5812C28.3908 33.0446 28.2301 33.7089 28.2301 34.5742Z" fill="white"/>
<path d="M40.0746 34.4749V30.6663H41.6749V34.4749L44.7876 30.6663H46.5997L43.4212 34.4607L46.8847 38.5105H44.9922L41.6749 34.5317V38.5105H40.0746V34.5317L36.7646 38.5105H34.8794L38.3356 34.4607L35.1644 30.6663H36.9765L40.0746 34.4749Z" fill="white"/>
<path d="M51.6634 38.6524C50.4066 38.6524 49.4226 38.2978 48.7114 37.5885C48.0051 36.8745 47.6519 35.8934 47.6519 34.6451C47.6519 33.3638 47.9807 32.3566 48.6384 31.6237C49.296 30.8909 50.1996 30.5244 51.3492 30.5244C52.4161 30.5244 53.2588 30.8388 53.8774 31.4677C54.4961 32.0966 54.8054 32.9619 54.8054 34.0636V34.9643H49.4202C49.4446 35.7256 49.6565 36.3119 50.0559 36.7232C50.4554 37.1299 51.018 37.3332 51.7438 37.3332C52.2212 37.3332 52.6645 37.2906 53.0737 37.2055C53.4877 37.1157 53.931 36.9691 54.4035 36.7658V38.1205C53.9846 38.3143 53.5608 38.4514 53.1321 38.5318C52.7035 38.6122 52.2139 38.6524 51.6634 38.6524ZM51.3492 31.7869C50.8037 31.7869 50.3652 31.9547 50.034 32.2904C49.7076 32.6262 49.5128 33.1155 49.4494 33.7586H53.1175C53.1078 33.1108 52.947 32.6214 52.6353 32.2904C52.3235 31.9547 51.8948 31.7869 51.3492 31.7869Z" fill="white"/>
<path d="M60.0153 38.6524C58.7926 38.6524 57.8622 38.3072 57.224 37.6169C56.5908 36.9218 56.2741 35.9265 56.2741 34.631C56.2741 33.3118 56.6054 32.2975 57.2679 31.5883C57.9352 30.879 58.8973 30.5244 60.1541 30.5244C61.0066 30.5244 61.7738 30.6781 62.4558 30.9854L61.937 32.3259C61.2112 32.0517 60.612 31.9145 60.1395 31.9145C58.7414 31.9145 58.0424 32.8153 58.0424 34.6168C58.0424 35.4962 58.2153 36.1582 58.5612 36.6027C58.9119 37.0424 59.4234 37.2623 60.0957 37.2623C60.8605 37.2623 61.5838 37.0779 62.2658 36.7091V38.163C61.9589 38.338 61.6301 38.4633 61.2794 38.5389C60.9335 38.6146 60.5122 38.6524 60.0153 38.6524Z" fill="white"/>
<path d="M70.2377 30.6663V31.9713H67.6072V38.5105H65.8828V31.9713H63.2523V30.6663H70.2377Z" fill="white"/>
<path d="M78.8087 32.6734C78.8087 33.6002 78.251 34.1605 77.1355 34.3544V34.4111C77.759 34.482 78.2364 34.6735 78.5676 34.9856C78.8989 35.2977 79.0645 35.7019 79.0645 36.1984C79.0645 36.9407 78.7722 37.5129 78.1877 37.9148C77.608 38.312 76.7628 38.5105 75.6521 38.5105H71.7941V30.6663H75.6375C77.7517 30.6663 78.8087 31.3353 78.8087 32.6734ZM77.3035 36.0991C77.3035 35.7208 77.1525 35.4537 76.8505 35.2976C76.5485 35.1369 76.0954 35.0565 75.4914 35.0565H73.5112V37.2765H75.5352C76.7141 37.2765 77.3035 36.884 77.3035 36.0991ZM77.0916 32.8153C77.0916 32.5032 76.965 32.2786 76.7116 32.1415C76.4632 31.9996 76.0906 31.9287 75.5937 31.9287H73.5112V33.8153H75.3379C75.9128 33.8153 76.3487 33.7444 76.6459 33.6025C76.943 33.456 77.0916 33.1935 77.0916 32.8153Z" fill="white"/>
<path d="M84.3693 38.6524C83.1125 38.6524 82.1285 38.2978 81.4173 37.5885C80.711 36.8745 80.3578 35.8934 80.3578 34.6451C80.3578 33.3638 80.6866 32.3566 81.3443 31.6237C82.0019 30.8909 82.9055 30.5244 84.0551 30.5244C85.122 30.5244 85.9647 30.8388 86.5833 31.4677C87.202 32.0966 87.5113 32.9619 87.5113 34.0636V34.9643H82.1261C82.1505 35.7256 82.3624 36.3119 82.7618 36.7232C83.1612 37.1299 83.7239 37.3332 84.4497 37.3332C84.9271 37.3332 85.3704 37.2906 85.7796 37.2055C86.1936 37.1157 86.6369 36.9691 87.1094 36.7658V38.1205C86.6905 38.3143 86.2667 38.4514 85.838 38.5318C85.4094 38.6122 84.9198 38.6524 84.3693 38.6524ZM84.0551 31.7869C83.5096 31.7869 83.0711 31.9547 82.7399 32.2904C82.4135 32.6262 82.2187 33.1155 82.1553 33.7586H85.8234C85.8137 33.1108 85.6529 32.6214 85.3412 32.2904C85.0294 31.9547 84.6007 31.7869 84.0551 31.7869Z" fill="white"/>
<path d="M91.1794 30.6663V33.8153H94.9863V30.6663H96.7035V38.5105H94.9863V35.1274H91.1794V38.5105H89.4623V30.6663H91.1794Z" fill="white"/>
<path d="M100.883 30.6663V33.8153H104.69V30.6663H106.407V38.5105H104.69V35.1274H100.883V38.5105H99.1659V30.6663H100.883Z" fill="white"/>
<path d="M113.926 38.5105L113.583 37.4183H113.524C113.134 37.8959 112.742 38.2221 112.348 38.3971C111.953 38.5673 111.446 38.6524 110.828 38.6524C110.034 38.6524 109.413 38.4443 108.965 38.0283C108.521 37.6122 108.3 37.0235 108.3 36.2622C108.3 35.4537 108.609 34.8437 109.228 34.4324C109.846 34.021 110.789 33.7964 112.055 33.7586L113.451 33.716V33.2976C113.451 32.7964 113.329 32.4228 113.086 32.177C112.847 31.9264 112.474 31.8011 111.968 31.8011C111.554 31.8011 111.157 31.8602 110.777 31.9784C110.397 32.0966 110.031 32.2361 109.681 32.3968L109.125 31.2053C109.564 30.9831 110.043 30.8152 110.565 30.7017C111.086 30.5835 111.578 30.5244 112.041 30.5244C113.069 30.5244 113.843 30.7419 114.364 31.1769C114.89 31.6119 115.153 32.2952 115.153 33.2266V38.5105H113.926ZM111.368 37.3757C111.992 37.3757 112.491 37.2079 112.866 36.8722C113.246 36.5317 113.436 36.0565 113.436 35.4466V34.7657L112.399 34.8083C111.59 34.8366 111.001 34.969 110.63 35.2054C110.265 35.4371 110.082 35.7941 110.082 36.2764C110.082 36.6263 110.19 36.8982 110.404 37.092C110.618 37.2812 110.94 37.3757 111.368 37.3757Z" fill="white"/>
<path d="M118.376 38.5105H116.454L118.705 35.2976C118.159 35.1463 117.73 34.8768 117.419 34.4891C117.107 34.0967 116.951 33.612 116.951 33.0352C116.951 32.2928 117.224 31.7136 117.769 31.2975C118.315 30.8767 119.06 30.6663 120.005 30.6663H123.688V38.5105H121.964V35.4891H120.334L118.376 38.5105ZM118.624 33.0493C118.624 33.4512 118.78 33.7539 119.092 33.9572C119.409 34.1558 119.832 34.2551 120.363 34.2551H121.964V31.9287H120.093C119.625 31.9287 119.262 32.0257 119.004 32.2195C118.751 32.4134 118.624 32.69 118.624 33.0493Z" fill="white"/>
<path d="M135.255 30.6663V31.9713H131.748V38.5105H130.03V30.6663H135.255Z" fill="white"/>
<path d="M141.868 38.5105L141.524 37.4183H141.466C141.076 37.8959 140.684 38.2221 140.289 38.3971C139.895 38.5673 139.388 38.6524 138.77 38.6524C137.976 38.6524 137.354 38.4443 136.906 38.0283C136.463 37.6122 136.241 37.0235 136.241 36.2622C136.241 35.4537 136.551 34.8437 137.169 34.4324C137.788 34.021 138.731 33.7964 139.997 33.7586L141.393 33.716V33.2976C141.393 32.7964 141.271 32.4228 141.027 32.177C140.789 31.9264 140.416 31.8011 139.909 31.8011C139.495 31.8011 139.098 31.8602 138.718 31.9784C138.338 32.0966 137.973 32.2361 137.622 32.3968L137.067 31.2053C137.505 30.9831 137.985 30.8152 138.506 30.7017C139.028 30.5835 139.52 30.5244 139.982 30.5244C141.01 30.5244 141.785 30.7419 142.306 31.1769C142.832 31.6119 143.095 32.2952 143.095 33.2266V38.5105H141.868ZM139.31 37.3757C139.934 37.3757 140.433 37.2079 140.808 36.8722C141.188 36.5317 141.378 36.0565 141.378 35.4466V34.7657L140.341 34.8083C139.532 34.8366 138.942 34.969 138.572 35.2054C138.207 35.4371 138.024 35.7941 138.024 36.2764C138.024 36.6263 138.131 36.8982 138.346 37.092C138.56 37.2812 138.882 37.3757 139.31 37.3757Z" fill="white"/>
<path d="M152.134 38.5105H150.402V31.9713H148.174C148.037 33.6546 147.852 34.969 147.618 35.9147C147.389 36.8604 147.087 37.5507 146.712 37.9857C146.342 38.4207 145.86 38.6382 145.265 38.6382C144.89 38.6382 144.576 38.5862 144.323 38.4822V37.1772C144.503 37.2434 144.683 37.2765 144.864 37.2765C145.36 37.2765 145.75 36.7351 146.033 35.6523C146.32 34.5648 146.544 32.9028 146.705 30.6663H152.134V38.5105Z" fill="white"/>
<path d="M158.126 38.6524C156.869 38.6524 155.885 38.2978 155.174 37.5885C154.467 36.8745 154.114 35.8934 154.114 34.6451C154.114 33.3638 154.443 32.3566 155.101 31.6237C155.758 30.8909 156.662 30.5244 157.811 30.5244C158.878 30.5244 159.721 30.8388 160.34 31.4677C160.958 32.0966 161.268 32.9619 161.268 34.0636V34.9643H155.882C155.907 35.7256 156.119 36.3119 156.518 36.7232C156.918 37.1299 157.48 37.3332 158.206 37.3332C158.683 37.3332 159.127 37.2906 159.536 37.2055C159.95 37.1157 160.393 36.9691 160.866 36.7658V38.1205C160.447 38.3143 160.023 38.4514 159.594 38.5318C159.166 38.6122 158.676 38.6524 158.126 38.6524ZM157.811 31.7869C157.266 31.7869 156.827 31.9547 156.496 32.2904C156.17 32.6262 155.975 33.1155 155.912 33.7586H159.58C159.57 33.1108 159.409 32.6214 159.097 32.2904C158.786 31.9547 158.357 31.7869 157.811 31.7869Z" fill="white"/>
<path d="M167.318 38.6524C166.295 38.6524 165.501 38.2954 164.936 37.5814H164.833C164.902 38.2434 164.936 38.6453 164.936 38.7871V42H163.219V30.6663H164.607C164.646 30.8128 164.726 31.1627 164.848 31.7159H164.936C165.472 30.9216 166.275 30.5244 167.347 30.5244C168.355 30.5244 169.14 30.879 169.7 31.5883C170.265 32.2975 170.547 33.2928 170.547 34.5742C170.547 35.8556 170.26 36.8556 169.685 37.5743C169.115 38.293 168.326 38.6524 167.318 38.6524ZM166.901 31.8862C166.219 31.8862 165.72 32.08 165.403 32.4678C165.092 32.8555 164.936 33.4749 164.936 34.326V34.5742C164.936 35.5293 165.092 36.222 165.403 36.6523C165.715 37.0779 166.224 37.2906 166.931 37.2906C167.525 37.2906 167.983 37.0542 168.304 36.5814C168.626 36.1086 168.786 35.4348 168.786 34.56C168.786 33.6806 168.626 33.0162 168.304 32.567C167.988 32.1131 167.52 31.8862 166.901 31.8862Z" fill="white"/>
<path d="M176.072 38.6524C174.815 38.6524 173.831 38.2978 173.119 37.5885C172.413 36.8745 172.06 35.8934 172.06 34.6451C172.06 33.3638 172.389 32.3566 173.046 31.6237C173.704 30.8909 174.608 30.5244 175.757 30.5244C176.824 30.5244 177.667 30.8388 178.285 31.4677C178.904 32.0966 179.213 32.9619 179.213 34.0636V34.9643H173.828C173.853 35.7256 174.065 36.3119 174.464 36.7232C174.863 37.1299 175.426 37.3332 176.152 37.3332C176.629 37.3332 177.073 37.2906 177.482 37.2055C177.896 37.1157 178.339 36.9691 178.812 36.7658V38.1205C178.393 38.3143 177.969 38.4514 177.54 38.5318C177.112 38.6122 176.622 38.6524 176.072 38.6524ZM175.757 31.7869C175.212 31.7869 174.773 31.9547 174.442 32.2904C174.116 32.6262 173.921 33.1155 173.857 33.7586H177.526C177.516 33.1108 177.355 32.6214 177.043 32.2904C176.732 31.9547 176.303 31.7869 175.757 31.7869Z" fill="white"/>
<path d="M181.99 38.5105H180.068L182.319 35.2976C181.773 35.1463 181.345 34.8768 181.033 34.4891C180.721 34.0967 180.565 33.612 180.565 33.0352C180.565 32.2928 180.838 31.7136 181.384 31.2975C181.929 30.8767 182.675 30.6663 183.62 30.6663H187.302V38.5105H185.578V35.4891H183.948L181.99 38.5105ZM182.239 33.0493C182.239 33.4512 182.394 33.7539 182.706 33.9572C183.023 34.1558 183.447 34.2551 183.978 34.2551H185.578V31.9287H183.707C183.24 31.9287 182.877 32.0257 182.619 32.2195C182.365 32.4134 182.239 32.69 182.239 33.0493Z" fill="white"/>
<path d="M0.200012 22.7342H12.8453C17.8324 22.7342 20.3851 20.542 20.3851 16.3686V16.3037C20.3851 13.2021 18.7622 11.3184 15.6347 10.7825V10.4902C18.255 10.0031 19.6243 8.3467 19.6243 5.65108V5.56988C19.6243 1.89993 17.2407 0 12.5748 0H0.200012V22.7342ZM5.18711 9.30479V3.21527H11.0871C13.4708 3.21527 14.6541 4.22207 14.6541 6.20319V6.26815C14.6541 8.28175 13.4708 9.30479 11.0871 9.30479H5.18711ZM5.18711 19.5027V12.2602H11.2392C13.8596 12.2602 15.1613 13.4619 15.1613 15.8165V15.8815C15.1613 18.2848 13.8596 19.5027 11.2392 19.5027H5.18711Z" fill="white"/>
<path d="M25.0827 0V22.7342H30.0022V0H25.0827Z" fill="white"/>
<path d="M40.2956 23.1564C44.2684 23.1564 47.1592 21.4514 48.2242 18.5609L48.5623 18.6421C47.9199 21.7924 48.5961 23.1564 52.4844 23.1564C52.9746 23.1564 53.4649 23.1077 53.8706 23.0427L54.4454 20.2334L53.6001 20.2172C52.6703 20.201 52.3999 19.9899 52.3999 18.8369V11.0261C52.3999 7.16128 49.7288 5.31006 44.0317 5.31006C37.9795 5.31006 34.9197 7.59972 35.1732 11.562L40.0251 11.9517C39.8222 9.33727 41.2085 8.15184 43.9303 8.15184C46.3646 8.15184 47.5142 9.01249 47.5142 10.9774V11.9355L42.7131 12.7799C37.9119 13.6405 34.7337 15.102 34.7337 18.6745V18.7232C34.7337 21.5488 36.7285 23.1564 40.2956 23.1564ZM42.2566 20.0061C40.5999 20.0061 39.7039 19.4378 39.7039 18.2686V18.2361C39.7039 16.5635 41.2761 15.8815 44.3867 15.2969L47.5142 14.7123V15.508C47.5142 18.1224 45.0629 20.0061 42.2566 20.0061Z" fill="white"/>
<path d="M58.5852 22.7342H63.5047V14.8097C63.5047 10.9774 65.3812 8.60652 68.4918 8.60652C70.8078 8.60652 71.9574 9.75947 71.9574 11.9679V22.7342H76.8769V10.8312C76.8769 7.25871 74.6961 5.37502 70.6388 5.37502C66.9534 5.37502 64.4345 6.93394 62.9468 10.1817L62.6087 10.0355C63.2849 8.10312 63.5216 6.95017 63.5216 5.68355H58.5852V22.7342Z" fill="white"/>
<path d="M91.5149 23.1402C97.3135 23.1402 100.559 20.8992 101.05 16.5635L96.0794 16.0276C95.8765 18.7557 94.3212 20.136 91.5318 20.136C88.4043 20.136 86.7814 18.2523 86.7814 14.5337V13.738C86.7814 10.1005 88.4212 8.26551 91.4811 8.26551C94.3043 8.26551 95.7751 9.77571 95.9949 12.7961L100.897 12.2602C100.509 7.66468 97.3811 5.27759 91.498 5.27759C85.1078 5.27759 81.7436 8.28175 81.7436 14.0303V14.2414C81.7436 20.0873 85.074 23.1402 91.5149 23.1402Z" fill="white"/>
<path d="M105.95 22.7342H110.87V14.8097C110.87 10.9774 112.729 8.62276 115.857 8.62276C118.173 8.62276 119.322 9.75947 119.322 11.9679V22.7342H124.242V10.8312C124.242 7.25871 122.044 5.37502 118.004 5.37502C114.284 5.37502 111.782 6.93393 110.312 10.1654L109.957 10.0355C110.616 8.21679 110.853 6.86898 110.87 5.26135V0H105.95V22.7342Z" fill="white"/>
<path d="M134.451 23.1564C138.423 23.1564 141.314 21.4514 142.379 18.5609L142.717 18.6421C142.075 21.7924 142.751 23.1564 146.639 23.1564C147.13 23.1564 147.62 23.1077 148.026 23.0427L148.6 20.2334L147.755 20.2172C146.825 20.201 146.555 19.9899 146.555 18.8369V11.0261C146.555 7.16128 143.884 5.31006 138.187 5.31006C132.135 5.31006 129.075 7.59972 129.328 11.562L134.18 11.9517C133.977 9.33727 135.364 8.15184 138.085 8.15184C140.52 8.15184 141.669 9.01249 141.669 10.9774V11.9355L136.868 12.7799C132.067 13.6405 128.889 15.102 128.889 18.6745V18.7232C128.889 21.5488 130.884 23.1564 134.451 23.1564ZM136.412 20.0061C134.755 20.0061 133.859 19.4378 133.859 18.2686V18.2361C133.859 16.5635 135.431 15.8815 138.542 15.2969L141.669 14.7123V15.508C141.669 18.1224 139.218 20.0061 136.412 20.0061Z" fill="white"/>
<path d="M152.74 22.7342H157.66V15.6054C157.66 11.156 159.097 9.51589 162.85 9.25607L165.267 9.07745L164.692 5.14768C160.72 5.43997 158.877 6.64164 157.051 10.1817L156.73 10.0355C157.524 7.76211 157.71 6.85274 157.677 5.68355H152.74V22.7342Z" fill="white"/>
<path d="M176.135 23.0427C179.787 23.0427 182.171 21.4189 183.371 18.4797L183.726 18.5933C183.151 20.3796 182.847 21.7924 182.83 22.7342H187.8V0H182.881V4.62804C182.881 6.4143 183.134 7.85954 183.743 9.82443L183.405 9.95434C182.204 7.03137 179.804 5.34254 176.135 5.34254C171.064 5.34254 168.393 8.31423 168.393 13.9978V14.4037C168.393 20.0711 171.064 23.0427 176.135 23.0427ZM177.995 20.1198C174.952 20.1198 173.363 18.2523 173.363 14.5661V13.8192C173.363 10.1167 174.952 8.23303 177.995 8.23303C181.173 8.23303 182.881 10.2142 182.881 13.9003V14.4849C182.881 18.1549 181.173 20.1198 177.995 20.1198Z" fill="white"/>
</svg>
